<?xml version="1.0" encoding="utf-8"?>
<!-- Generator: Adobe Illustrator 24.2.3, SVG Export Plug-In . SVG Version: 6.00 Build 0)  -->
<svg version="1.2" baseProfile="tiny" id="Calque_1"
	 xmlns="http://www.w3.org/2000/svg" xmlns:xlink="http://www.w3.org/1999/xlink" x="0px" y="0px" width="118px" height="118px" viewBox="0 0 118 118"
	 overflow="visible" xml:space="preserve">
<path fill="#272727" d="M12.1,13.7c0-3.4,2.8-6.2,6.2-6.2h12.5h0.1h2c-5,2.5-9.6,5.7-13.6,9.7c-0.7,0.7-1.1,1.6-1.1,2.6
	C14.7,19.7,12.1,17,12.1,13.7z M43.1,82.8L84.5,114l-6.8-21.7c-2.1,2.1-5.9,5.2-9.2,5.2c-0.3,0-0.5,0-0.8-0.1
	c-1.7-0.3-3.1-1.5-3.6-3.2c-0.8-2.7,1-8.1,2.7-12.4C49.3,81.4,33.7,69,29.9,51.3c-0.1-0.3-0.1-0.6-0.2-1c-2.4,0.3-4.9,0.5-7.4,0.5
	c-1.2,0-2.3-0.5-3-1.5c-0.7-0.9-0.9-2.1-0.6-3.2c1.9-6.9,5.2-13.4,9.6-19c-1.6-0.6-3.2-1.3-4.7-2H0v16.3h6.6c2.7,0,4.8,2.2,4.8,4.8
	c0,2-1.2,3.6-2.8,4.4H0v15h11.7c4.9,0,8.8,3.9,8.8,8.8c0,4.9-3.9,8.8-8.8,8.8h-0.3H0v11.4h1.7c2.6,0,4.6,2.1,4.6,4.6
	c0,2.6-2.1,4.6-4.6,4.6H0V114h1.7L43.1,82.8z M39.2,2.2c0,1.1-0.3,2.1-0.9,2.9c2.2-0.8,4.4-1.4,6.7-1.9c1.5-0.3,3-0.6,4.5-0.7
	L48.7,0H38.7C39,0.7,39.2,1.4,39.2,2.2z M100.8,32.3c5.7-2.8,11.7-3.7,11.7-3.7s-1.1,4.8-5.6,10.5c-1,1.3-2.6,2.7-4.4,3.9
	c0.1,9.5-3.8,18.4-10.3,24.9c-0.1,4.1-0.8,8.7-1.9,11c-1,2.1-6.3,7.9-7.3,5.8c-0.6-1.4,0-6.1,1.1-10.8c-1.3,0.7-2.6,1.3-3.9,1.8
	c-0.6,4.7-2.3,10.3-4.1,12.8c-1.4,2-7.8,7-8.4,4.7c-0.6-2,2.3-9.9,5.1-15.5c-18.1,2.7-35.3-9.1-39.2-27.2c-0.3-1.5-0.5-3.1-0.7-4.6
	c-3.5,0.8-7,1.1-10.5,1.1c2.2-8,6.4-15.6,12.7-21.9c-4.7-1.1-9.2-2.9-13.4-5.3c6.4-6.3,14.6-11,24-13C56,4.7,66.8,5.8,76.5,9.5
	C87.7,12.5,97,20.9,100.8,32.3z M92.6,26.4c-1.3-2.8-7.2-8.1-9.3-7.9c-1,0.1,0.4,2.9,0.9,3.7c1.5,3,6.8,9.8,8.4,10.2
	C94,32.7,93.2,27.7,92.6,26.4z"/>
</svg>
