<?xml version="1.0" encoding="utf-8"?>
<!-- Generator: Adobe Illustrator 24.2.3, SVG Export Plug-In . SVG Version: 6.00 Build 0)  -->
<svg version="1.2" baseProfile="tiny" id="Calque_1"
	 xmlns="http://www.w3.org/2000/svg" xmlns:xlink="http://www.w3.org/1999/xlink" x="0px" y="0px" width="118px" height="118px" viewBox="0 0 118 118"
	 overflow="visible" xml:space="preserve">
<path fill="#050506" d="M77,99c0,6.7-1.1,13-3.2,19H50.7c3.3-5.6,5.3-12.1,5.3-19c0-20.4-16.6-37-37-37c-6.9,0-13.4,1.9-19,5.3V44.2
	C6,42.1,12.3,41,19,41C51,41,77,67,77,99z M19,3C12.5,3,6.1,3.7,0,4.9v21.6C6.1,24.9,12.4,24,19,24c41.4,0,75,33.6,75,75
	c0,6.6-0.9,12.9-2.4,19h21.6c1.2-6.1,1.9-12.5,1.9-19C115,46.1,71.9,3,19,3z M19,80C8.5,80,0,88.5,0,99s8.5,19,19,19s19-8.5,19-19
	S29.5,80,19,80z"/>
</svg>
