<?xml version="1.0" encoding="utf-8"?>
<!-- Generator: Adobe Illustrator 24.2.3, SVG Export Plug-In . SVG Version: 6.00 Build 0)  -->
<svg version="1.2" baseProfile="tiny" id="Calque_1"
	 xmlns="http://www.w3.org/2000/svg" xmlns:xlink="http://www.w3.org/1999/xlink" x="0px" y="0px" viewBox="0 0 15 18"
	 overflow="visible" xml:space="preserve">
<path fill="#A39FB9" d="M12.9,12.2c0,0-2.1-1.3-3.2-4.9c0.9-0.7,1.5-1.8,1.5-3c0-2-1.7-3.7-3.7-3.7S3.8,2.2,3.8,4.3
	c0,1.2,0.6,2.3,1.5,3c-1.1,3.6-3.2,4.9-3.2,4.9c-0.2,0.1-0.3,0.4-0.3,0.6v3c0,0.3,0.2,0.5,0.4,0.6c0.1,0,2.5,1.1,5.3,1.1
	c2.8,0,5.2-1,5.3-1.1c0.3-0.1,0.4-0.4,0.4-0.6v-3C13.2,12.5,13.1,12.3,12.9,12.2z M7.5,2c1.3,0,2.3,1,2.3,2.3s-1,2.3-2.3,2.3
	c-1.3,0-2.3-1-2.3-2.3S6.2,2,7.5,2z M6.6,7.8C6.9,7.9,7.2,8,7.5,8c0.3,0,0.6,0,0.9-0.1c0.9,2.6,2.1,4.1,3,4.9
	C10.4,13,9,13.3,7.5,13.3c-1.5,0-2.9-0.3-3.9-0.6C4.5,12,5.8,10.4,6.6,7.8z M7.5,16c-1.8,0-3.5-0.5-4.3-0.8v-1.8
	c0.9,0.3,2.5,0.7,4.3,0.7c1.8,0,3.4-0.4,4.3-0.7v1.8C11,15.5,9.3,16,7.5,16z"/>
</svg>
