<?xml version="1.0" encoding="utf-8"?>
<!-- Generator: Adobe Illustrator 24.2.3, SVG Export Plug-In . SVG Version: 6.00 Build 0)  -->
<svg version="1.2" baseProfile="tiny" id="Calque_1"
	 xmlns="http://www.w3.org/2000/svg" xmlns:xlink="http://www.w3.org/1999/xlink" x="0px" y="0px" viewBox="0 0 15 18"
	 overflow="visible" xml:space="preserve">
<path fill="#707070" d="M14.5,6.8l-13,10C1.3,16.9,1.2,17,1,17c-0.2,0-0.5-0.1-0.6-0.3c-0.3-0.3-0.2-0.8,0.1-1l13-10
	c0.3-0.3,0.8-0.2,1.1,0.1C14.8,6.1,14.8,6.6,14.5,6.8z M1.8,13.1L1.8,13.1l0-0.4c0-0.2,0.1-0.5,0.3-0.6c0,0,0.8-0.5,1.7-1.8
	c0.5-0.8,1.1-1.8,1.5-3.1C4.6,6.7,4,5.9,3.9,4.9c0-0.2-0.1-0.4-0.1-0.7c0-1,0.4-1.9,1.1-2.6C5.1,1.4,5.4,1.2,5.7,1
	c0.3-0.2,0.7-0.3,1-0.4c0.2,0,0.5-0.1,0.7-0.1s0.5,0,0.7,0.1C8.6,0.7,9,0.8,9.3,1c0.3,0.2,0.6,0.4,0.8,0.6c0.7,0.7,1.1,1.6,1.1,2.6
	c0,0,0,0,0,0.1c0,0.2,0,0.4,0,0.6c0,0,0,0.1,0,0.1c0,0.2-0.1,0.3-0.1,0.4c0,0,0,0,0,0c-0.1,0.3-0.3,0.6-0.5,0.9l-0.1,0c0,0,0,0,0,0
	L8.4,8c0,0,0,0,0,0l0,0c0-0.1,0-0.1-0.1-0.2C8.1,7.9,7.8,7.9,7.5,7.9c0,0,0,0,0,0c0,0,0,0,0,0c-0.3,0-0.6,0-0.8-0.1
	c-0.3,0.9-0.6,1.7-1,2.3l0,0c0,0,0,0,0,0L1.8,13.1L1.8,13.1L1.8,13.1z M5.6,5.5c0.1,0.1,0.2,0.3,0.3,0.4c0,0,0,0,0.1,0
	C6,6,6.2,6.1,6.3,6.2c0.2,0.1,0.4,0.2,0.6,0.3c0.2,0.1,0.4,0.1,0.6,0.1c0.2,0,0.4,0,0.6-0.1c0.2-0.1,0.4-0.1,0.6-0.3
	C8.8,6.1,9,6,9.1,5.9c0,0,0,0,0.1,0c0.1-0.1,0.2-0.3,0.3-0.4c0,0,0.1-0.1,0.1-0.1C9.6,5.2,9.6,5.1,9.7,5c0-0.1,0-0.1,0-0.2
	c0-0.2,0.1-0.4,0.1-0.5c0,0,0,0,0,0C9.8,3,8.8,2,7.5,2C6.2,2,5.2,3,5.2,4.3c0,0,0,0,0,0c0,0.2,0,0.4,0.1,0.5c0,0.1,0,0.1,0.1,0.2
	c0,0.1,0.1,0.2,0.2,0.4C5.5,5.4,5.5,5.4,5.6,5.5z M12.9,12.2C12.9,12.2,12.9,12.1,12.9,12.2C12.9,12.1,12.8,12.1,12.9,12.2
	c-0.2-0.1-0.7-0.6-1.4-1.4l0,0c0,0,0,0,0,0l-1.1,0.8c0.4,0.5,0.7,0.8,1,1.1c-0.8,0.2-2,0.5-3.2,0.6l0,0c0,0,0,0,0,0l-1,0.8
	c0.1,0,0.3,0,0.4,0c0,0,0.1,0,0.1,0c1.6,0,3-0.3,4-0.6c0.1,0,0.2-0.1,0.3-0.1v1.8C11,15.5,9.3,16,7.5,16c-0.9,0-1.8-0.1-2.6-0.3
	l-1.4,1.1l0,0c0.8,0.2,2,0.5,3.3,0.6c0.2,0,0.5,0,0.7,0c0.6,0,1.1,0,1.6-0.1c1.3-0.2,2.3-0.5,3-0.7c0.4-0.1,0.7-0.2,0.7-0.3
	c0.3-0.1,0.4-0.4,0.4-0.6v-3C13.2,12.5,13.1,12.3,12.9,12.2C12.9,12.2,12.9,12.2,12.9,12.2z"/>
</svg>
